PathFileType	4	(X/Y/Z)	c:/Users/goper/Files/vsCode/490R/osim_files/C17/C17_Slow_04.trc
DataRate	CameraRate	NumFrames	NumMarkers	Units                	OrigDataRate	OrigDataStartFrame	OrigNumFrames
250.00	250.00	4	36	mm	250.0	1877	3002
                Frame#	Time	LPSIS			LASIS			LTH1			LTH2			LTH3			LTH4			LLFE			LMFE			LSH1			LSH2			LSH3			LSH4			LLMAL			LMMAL			LCAL			LMTP5			LTOE			LMTP1			RPSIS			RASIS			RTH1			RTH2			RTH3			RTH4			RLFE			RMFE			RSH1			RSH2			RSH3			RSH4			RLMAL			RMMAL			RCAL			RMTP1			RTOE			RMTP5		
		X1	Y1	Z1	X2	Y2	Z2	X3	Y3	Z3	X4	Y4	Z4	X5	Y5	Z5	X6	Y6	Z6	X7	Y7	Z7	X8	Y8	Z8	X9	Y9	Z9	X10	Y10	Z10	X11	Y11	Z11	X12	Y12	Z12	X13	Y13	Z13	X14	Y14	Z14	X15	Y15	Z15	X16	Y16	Z16	X17	Y17	Z17	X18	Y18	Z18	X19	Y19	Z19	X20	Y20	Z20	X21	Y21	Z21	X22	Y22	Z22	X23	Y23	Z23	X24	Y24	Z24	X25	Y25	Z25	X26	Y26	Z26	X27	Y27	Z27	X28	Y28	Z28	X29	Y29	Z29	X30	Y30	Z30	X31	Y31	Z31	X32	Y32	Z32	X33	Y33	Z33	X34	Y34	Z34	X35	Y35	Z35	X36	Y36	Z36

1877	7.50400	-1088.48462	1060.92480	261.80524	-1284.21790	1021.01233	360.77530	-1297.68469	686.72150	378.96942	-1319.70422	649.74048	371.45193	-1351.79895	714.40802	387.26974	-1367.97375	673.29388	379.10101	-1386.07727	506.68289	334.45963	-1382.46252	512.80566	210.01082	-1335.69409	276.38879	326.92758	-1337.59375	232.87057	320.27383	-1397.47839	273.61026	323.00641	-1390.22229	230.63371	317.50635	-1351.37280	96.93884	295.83798	-1364.86206	105.23085	208.61261	-1275.59875	57.56934	252.03404	-1468.11023	47.36374	320.44998	-1526.87061	66.84090	252.84052	-1509.28333	47.22362	204.65768	-1094.26660	1053.40210	187.87480	-1274.23401	1014.90601	87.81022	-1197.36597	724.86090	29.22314	-1197.29968	678.53198	34.85937	-1257.37439	721.36395	39.39380	-1250.03577	674.14777	40.22816	-1185.88306	462.44043	43.15710	-1198.55249	470.55017	170.54634	-986.31525	394.34186	42.53256	-956.71313	361.63794	53.71579	-1027.73853	346.76190	43.10933	-989.83838	319.76361	52.71258	-830.74756	246.70116	81.15476	-859.04565	233.72844	166.34097	-781.18396	304.84189	122.49414	-829.82428	89.00657	192.06184	-855.59186	75.71456	147.41788	-800.60632	102.87931	80.48588
1878	7.50800	-1093.52197	1061.97437	261.98120	-1289.33447	1022.08972	361.09393	-1304.80188	693.12323	388.26855	-1322.75916	650.16925	371.84314	-1354.84387	714.59528	387.52600	-1372.03650	673.69824	379.71155	-1388.06543	506.53674	334.75540	-1383.98755	512.70978	210.41992	-1336.61450	276.40775	326.97192	-1338.33398	232.96532	320.43295	-1398.28931	273.42108	323.27228	-1390.83899	230.49239	317.70712	-1351.63940	97.05905	295.83179	-1364.93359	105.26845	208.65562	-1275.70044	57.65194	252.06775	-1468.14148	47.35730	320.47717	-1526.90210	66.69014	252.88049	-1509.26697	47.18344	204.65221	-1099.42590	1054.32971	188.11650	-1280.95129	1016.69415	88.38213	-1205.13013	725.20807	29.63044	-1205.60522	678.81866	35.12531	-1265.16785	722.27667	39.64979	-1258.30737	674.99292	40.50604	-1196.37964	462.94290	43.21158	-1208.68066	471.01828	170.82788	-997.00928	395.35126	42.30703	-967.65063	362.27454	54.19887	-1037.94604	347.59088	42.80589	-999.93475	320.82468	52.18109	-839.65332	249.04390	80.53162	-868.66357	235.34097	165.80089	-790.69580	306.83136	123.11403	-840.02350	90.12336	190.25104	-864.85645	77.62898	145.37872	-809.31854	105.22411	79.12398
1879	7.51200	-1098.61243	1063.09387	262.26859	-1294.38342	1023.13525	361.38004	-1307.85950	693.48700	388.55225	-1325.71216	650.67889	372.31845	-1358.15320	714.90649	387.85983	-1374.20813	673.45868	380.02966	-1389.85962	506.48984	335.13614	-1385.59485	512.67163	210.86134	-1337.90198	276.06714	328.23013	-1338.86560	233.11099	320.68613	-1399.15405	273.33499	323.51935	-1391.42163	230.33940	317.94925	-1351.73364	97.11437	295.83279	-1364.98132	105.30849	208.68973	-1275.77075	57.76287	252.08636	-1468.18286	47.35129	320.50363	-1526.94507	66.57047	252.87033	-1509.30066	47.13193	204.64633	-1104.38782	1055.30786	188.42590	-1285.86853	1017.76111	88.64569	-1212.94617	725.58777	29.97604	-1213.78784	679.19281	35.44371	-1273.01709	723.21332	40.05827	-1266.85205	675.53424	40.85703	-1206.73767	463.60001	43.25509	-1218.77710	471.71475	171.11742	-1007.47949	396.46857	41.93164	-977.39581	363.94437	52.59888	-1048.17236	348.55115	42.49587	-1010.09906	321.80692	51.78711	-848.67188	251.31555	80.07001	-878.72968	236.83226	165.37526	-800.02191	308.46179	123.78329	-850.72797	91.12202	188.31483	-875.42145	79.12394	143.06999	-819.04858	107.38150	77.66456
1880	7.51600	-1103.74487	1064.15283	262.56152	-1299.41833	1024.09912	361.63550	-1311.07666	694.01599	388.96185	-1328.64905	651.15350	372.77792	-1361.58521	715.30585	388.24774	-1377.04907	673.66492	380.39337	-1391.60303	506.42050	335.48154	-1387.17188	512.76190	211.33104	-1338.03992	276.55276	327.36087	-1339.39917	233.23138	320.90170	-1399.90894	273.22058	323.78003	-1391.98303	230.27022	318.13834	-1351.84521	97.16129	295.84540	-1365.03760	105.33748	208.75069	-1275.83057	57.86533	252.11482	-1468.21619	47.37362	320.51712	-1526.96973	66.46615	252.88359	-1509.31812	47.07684	204.63087	-1109.40906	1056.33447	188.68102	-1291.08765	1018.89069	88.94136	-1220.69067	726.00562	30.31643	-1222.15625	679.58191	35.75853	-1280.84253	724.10016	40.36448	-1275.13123	676.57574	41.09639	-1217.00610	464.36441	43.27658	-1228.64941	472.49487	171.34882	-1017.73041	397.61322	41.45928	-988.03680	364.70905	53.32040	-1058.39941	349.56500	42.25800	-1019.99957	322.97882	51.44137	-857.93524	253.33900	79.77348	-888.71814	238.28107	165.02628	-809.21155	309.70441	124.57200	-862.21753	91.85900	186.31786	-886.51428	80.42682	140.70877	-829.46643	109.26806	76.06465
